{
	"asset":{
		"generator":"Khronos glTF Blender I/O v5.0.21",
		"version":"2.0"
	},
	"scene":0,
	"scenes":[
		{
			"name":"Scene",
			"nodes":[
				2
			]
		}
	],
	"nodes":[
		{
			"mesh":0,
			"name":"Maxwell",
			"rotation":[
				-0.70710688829422,
				0,
				0,
				0.7071066498756409
			],
			"scale":[
				100,
				100,
				100
			]
		},
		{
			"mesh":1,
			"name":"whiskers",
			"rotation":[
				-0.70710688829422,
				0,
				0,
				0.7071066498756409
			],
			"scale":[
				100,
				100,
				100
			]
		},
		{
			"children":[
				0,
				1
			],
			"name":"RootNode"
		}
	],
	"materials":[
		{
			"name":"Dingus",
			"pbrMetallicRoughness":{
				"baseColorTexture":{
					"index":0
				},
				"metallicFactor":0.4000000059604645,
				"roughnessFactor":0.30151134729385376
			}
		},
		{
			"alphaMode":"BLEND",
			"name":"Whiskers",
			"pbrMetallicRoughness":{
				"baseColorTexture":{
					"index":1
				},
				"metallicFactor":0.4000000059604645,
				"roughnessFactor":0.30151134729385376
			}
		}
	],
	"meshes":[
		{
			"name":"Maxwell",
			"primitives":[
				{
					"attributes":{
						"POSITION":0,
						"NORMAL":1,
						"TEXCOORD_0":2,
						"TEXCOORD_1":3
					},
					"indices":4,
					"material":0
				}
			]
		},
		{
			"name":"whiskers",
			"primitives":[
				{
					"attributes":{
						"POSITION":5,
						"NORMAL":6,
						"TEXCOORD_0":7,
						"TEXCOORD_1":8
					},
					"indices":9,
					"material":1
				}
			]
		}
	],
	"textures":[
		{
			"sampler":0,
			"source":0
		},
		{
			"sampler":0,
			"source":1
		}
	],
	"images":[
		{
			"mimeType":"image/jpeg",
			"name":"Maxwell",
			"uri":"textures/Maxwell.ktx2"
		},
		{
			"mimeType":"image/png",
			"name":"whiskers",
			"uri":"textures/whiskers.ktx2"
		}
	],
	"accessors":[
		{
			"bufferView":0,
			"componentType":5126,
			"count":347,
			"max":[
				0.00921771489083767,
				0.0223749540746212,
				0.023541297763586044
			],
			"min":[
				-0.011379134841263294,
				-0.0163625068962574,
				-0.0009805862791836262
			],
			"type":"VEC3"
		},
		{
			"bufferView":1,
			"componentType":5126,
			"count":347,
			"type":"VEC3"
		},
		{
			"bufferView":2,
			"componentType":5126,
			"count":347,
			"type":"VEC2"
		},
		{
			"bufferView":3,
			"componentType":5126,
			"count":347,
			"type":"VEC2"
		},
		{
			"bufferView":4,
			"componentType":5123,
			"count":1776,
			"type":"SCALAR"
		},
		{
			"bufferView":5,
			"componentType":5126,
			"count":18,
			"max":[
				0.0047444230876863,
				-0.0058717490173876286,
				0.016314571723341942
			],
			"min":[
				-0.010905716568231583,
				-0.019899779930710793,
				0.008591421879827976
			],
			"type":"VEC3"
		},
		{
			"bufferView":6,
			"componentType":5126,
			"count":18,
			"type":"VEC3"
		},
		{
			"bufferView":7,
			"componentType":5126,
			"count":18,
			"type":"VEC2"
		},
		{
			"bufferView":8,
			"componentType":5126,
			"count":18,
			"type":"VEC2"
		},
		{
			"bufferView":9,
			"componentType":5123,
			"count":48,
			"type":"SCALAR"
		}
	],
	"bufferViews":[
		{
			"buffer":0,
			"byteLength":4164,
			"byteOffset":0,
			"target":34962
		},
		{
			"buffer":0,
			"byteLength":4164,
			"byteOffset":4164,
			"target":34962
		},
		{
			"buffer":0,
			"byteLength":2776,
			"byteOffset":8328,
			"target":34962
		},
		{
			"buffer":0,
			"byteLength":2776,
			"byteOffset":11104,
			"target":34962
		},
		{
			"buffer":0,
			"byteLength":3552,
			"byteOffset":13880,
			"target":34963
		},
		{
			"buffer":0,
			"byteLength":216,
			"byteOffset":17432,
			"target":34962
		},
		{
			"buffer":0,
			"byteLength":216,
			"byteOffset":17648,
			"target":34962
		},
		{
			"buffer":0,
			"byteLength":144,
			"byteOffset":17864,
			"target":34962
		},
		{
			"buffer":0,
			"byteLength":144,
			"byteOffset":18008,
			"target":34962
		},
		{
			"buffer":0,
			"byteLength":96,
			"byteOffset":18152,
			"target":34963
		}
	],
	"samplers":[
		{
			"magFilter":9729,
			"minFilter":9987
		}
	],
	"buffers":[
		{
			"byteLength":18248,
			"uri":"Untitled.bin"
		}
	]
}
